<?xml version="1.0" encoding="UTF-8" standalone="no"?>
<!-- Created with Inkscape (http://www.inkscape.org/) -->

<svg
   xmlns:osb="http://www.openswatchbook.org/uri/2009/osb"
   xmlns:dc="http://purl.org/dc/elements/1.1/"
   xmlns:cc="http://creativecommons.org/ns#"
   xmlns:rdf="http://www.w3.org/1999/02/22-rdf-syntax-ns#"
   xmlns:svg="http://www.w3.org/2000/svg"
   xmlns="http://www.w3.org/2000/svg"
   xmlns:xlink="http://www.w3.org/1999/xlink"
   xmlns:sodipodi="http://sodipodi.sourceforge.net/DTD/sodipodi-0.dtd"
   xmlns:inkscape="http://www.inkscape.org/namespaces/inkscape"
   width="170"
   height="320"
   id="svg3827"
   version="1.1"
   inkscape:version="0.48.4 r9939"
   sodipodi:docname="2_u.svg">
  <defs
     id="defs3829">
    <marker
       inkscape:stockid="Arrow1Lstart"
       orient="auto"
       refY="0"
       refX="0"
       id="Arrow1Lstart"
       style="overflow:visible">
      <path
         id="path5829"
         d="M 0,0 5,-5 -12.5,0 5,5 0,0 z"
         style="fill-rule:evenodd;stroke:#000000;stroke-width:1pt"
         transform="matrix(0.8,0,0,0.8,10,0)"
         inkscape:connector-curvature="0" />
    </marker>
    <marker
       inkscape:stockid="Arrow2Lstart"
       orient="auto"
       refY="0"
       refX="0"
       id="Arrow2Lstart"
       style="overflow:visible">
      <path
         id="path5847"
         style="fill-rule:evenodd;stroke-width:0.625;stroke-linejoin:round"
         d="M 8.7185878,4.0337352 -2.2072895,0.01601326 8.7185884,-4.0017078 c -1.7454984,2.3720609 -1.7354408,5.6174519 -6e-7,8.035443 z"
         transform="matrix(1.1,0,0,1.1,1.1,0)"
         inkscape:connector-curvature="0" />
    </marker>
    <marker
       inkscape:stockid="Arrow2Sstart"
       orient="auto"
       refY="0"
       refX="0"
       id="Arrow2Sstart"
       style="overflow:visible">
      <path
         id="path5859"
         style="fill-rule:evenodd;stroke-width:0.625;stroke-linejoin:round"
         d="M 8.7185878,4.0337352 -2.2072895,0.01601326 8.7185884,-4.0017078 c -1.7454984,2.3720609 -1.7354408,5.6174519 -6e-7,8.035443 z"
         transform="matrix(0.3,0,0,0.3,-0.69,0)"
         inkscape:connector-curvature="0" />
    </marker>
    <linearGradient
       id="linearGradient5803"
       osb:paint="solid">
      <stop
         style="stop-color:#6ca83e;stop-opacity:1;"
         offset="0"
         id="stop5805" />
    </linearGradient>
    <linearGradient
       inkscape:collect="always"
       xlink:href="#linearGradient5803"
       id="linearGradient5807"
       x1="-18.91287"
       y1="902.74365"
       x2="121.35803"
       y2="902.74365"
       gradientUnits="userSpaceOnUse" />
  </defs>
  <sodipodi:namedview
     id="base"
     pagecolor="#ffffff"
     bordercolor="#666666"
     borderopacity="1.0"
     inkscape:pageopacity="0.0"
     inkscape:pageshadow="2"
     inkscape:zoom="1.979899"
     inkscape:cx="194.54165"
     inkscape:cy="136.40606"
     inkscape:document-units="px"
     inkscape:current-layer="layer1"
     showgrid="false"
     inkscape:window-width="1865"
     inkscape:window-height="1056"
     inkscape:window-x="1079"
     inkscape:window-y="24"
     inkscape:window-maximized="1" />
  <metadata
     id="metadata3832">
    <rdf:RDF>
      <cc:Work
         rdf:about="">
        <dc:format>image/svg+xml</dc:format>
        <dc:type
           rdf:resource="http://purl.org/dc/dcmitype/StillImage" />
        <dc:title />
      </cc:Work>
    </rdf:RDF>
  </metadata>
  <g
     inkscape:label="Ebene 1"
     inkscape:groupmode="layer"
     id="layer1"
     transform="translate(0,-732.36218)">
    <flowRoot
       xml:space="preserve"
       id="flowRoot3835"
       style="font-size:40px;font-style:normal;font-weight:normal;line-height:125%;letter-spacing:0px;word-spacing:0px;fill:#000000;fill-opacity:1;stroke:none;font-family:Sans"><flowRegion
         id="flowRegion3837"><rect
           id="rect3839"
           width="471.42856"
           height="711.42859"
           x="137.14285"
           y="178.07646" /></flowRegion><flowPara
         id="flowPara3841" /></flowRoot>    <g
       id="g3847"
       transform="matrix(1.1994167,0,0,1.0159467,24.562784,-23.777313)"
       style="fill:#ff0000;fill-opacity:1;stroke:#000000;stroke-width:4.49024105;stroke-miterlimit:4;stroke-opacity:1;stroke-dasharray:none;stroke-dashoffset:0">
      <g
         transform="scale(0.75396916,1.3263142)"
         style="font-size:335.23849487px;font-style:normal;font-variant:normal;font-weight:500;font-stretch:normal;text-align:start;line-height:125%;letter-spacing:0px;word-spacing:0px;writing-mode:lr-tb;text-anchor:start;fill:#ff0000;fill-opacity:1;stroke:#000000;stroke-dashoffset:0;font-family:FetteFraktur;-inkscape-font-specification:FetteFraktur Medium"
         id="text3843">
        <path
           d="m 7.0914495,740.81616 c 6.4812395,-2.45836 13.1860025,-4.13455 20.1143095,-5.02857 7.151696,-1.11741 14.303443,-1.67614 21.455264,-1.6762 4.246277,6e-5 8.492627,0.11181 12.739063,0.33524 4.246264,0.22355 8.492614,0.44705 12.739062,0.67048 4.02276,0.22355 7.933872,0.44704 11.733348,0.67048 4.022747,0.22355 7.822113,0.33529 11.398109,0.33524 1.787815,5e-5 3.575755,5e-5 5.363815,0 1.78781,5e-5 3.464,-0.11169 5.02858,-0.33524 11.39796,5e-5 21.6786,-1.3409 30.84194,-4.02286 9.38651,-2.68185 14.07984,-11.95677 14.08002,-27.8248 -1.8e-4,-0.89388 -1.8e-4,-1.6761 0,-2.34667 -1.8e-4,-0.89388 -1.8e-4,-1.78784 0,-2.68191 l 7.71048,-0.33524 c -0.67066,36.42931 -6.5932,61.68392 -17.76764,75.7639 -10.95128,14.08003 -23.80207,21.23177 -38.55243,21.45527 -3.35251,0 -6.704887,-0.33524 -10.05715,-1.00572 -3.3525,-0.44698 -6.704882,-1.11746 -10.057155,-2.01143 -9.163285,-2.9054 -18.102969,-7.26349 -26.81908,-13.0743 -8.716273,-6.03427 -16.538497,-12.73904 -23.466694,-20.11431 -1.117519,-1.11743 -2.234979,-2.12314 -3.352385,-3.01715 -0.894023,-1.11742 -1.899738,-2.12313 -3.017147,-3.01714 -3.575925,-3.12885 -7.263545,-5.36377 -11.06287,-6.70477 -3.575914,-1.34091 -6.8165499,-2.01138 -9.7219165,-2.01143 -3.5759045,5e-5 -6.59304796,0.89401 -9.0514393,2.6819 -2.458435,1.78799 -3.6876416,4.2464 -3.6876235,7.37525 -0.2235102,1.56448 0.111728,3.46417 1.0057155,5.69906 1.1174414,2.01146 2.6818862,4.24638 4.69333893,6.70477 3.57584987,4.24637 6.03426307,8.15748 7.37524687,11.73334 1.5644136,3.3524 2.346636,6.2578 2.3466695,8.7162 -3.35e-5,2.90541 -1.005748,5.14033 -3.0171465,6.70477 -1.7879673,1.56445 -3.9111423,2.34667 -6.36953138,2.34667 -0.22351624,0 -0.5587544,0 -1.00571552,0 -0.4470073,0 -0.7822455,0 -1.0057154,0 -1.787959,-0.22349 -3.4641498,-0.89397 -5.0285775,-2.01143 -1.5644618,-0.89397 -2.9054142,-2.12317 -4.0228622,-3.68762 -1.117473,-2.23492 -2.011442,-4.58159 -2.681908,-7.04001 -0.670486,-2.6819 -1.005725,-5.47555 -1.005715,-8.38096 -10e-6,-9.61014 3.575864,-20.673 10.7276317,-33.18861 7.3752194,-12.51551 19.1085553,-25.36631 35.2000423,-38.55243 10.504073,-8.49261 19.890742,-17.43229 28.160033,-26.81908 8.492617,-9.61004 15.19738,-19.10846 20.11431,-28.49527 3.128786,-5.81065 5.475453,-11.5097 7.040008,-17.09716 1.564334,-5.81064 2.346557,-11.50969 2.34667,-17.09717 -1.13e-4,-1.11728 -0.111859,-2.23474 -0.335239,-3.35238 -1.12e-4,-1.34077 -0.111858,-2.56998 -0.335238,-3.68763 -0.223605,-2.45822 -0.670589,-4.80489 -1.340954,-7.04 -0.670587,-2.45822 -1.564556,-4.80489 -2.681908,-7.04001 -3.575982,-7.15155 -8.716301,-12.40361 -15.420971,-15.75621 -6.481364,-3.35217 -13.409619,-5.1401 -20.784787,-5.36382 -0.223564,2.2e-4 -0.558802,2.2e-4 -1.005715,0 -0.223563,2.2e-4 -0.447055,2.2e-4 -0.670477,0 -8.269278,2.2e-4 -16.091502,1.67641 -23.466695,5.02858 -7.375286,3.3526 -12.5156046,7.82244 -15.4209705,13.40954 -0.6705078,1.34115 -1.117492,2.57036 -1.340954,3.68762 -0.2235222,0.89417 -0.4470144,1.78814 -0.670477,2.68191 -2.95e-5,2.90559 1.2291771,4.80528 3.6876235,5.69905 2.681872,0.89416 5.475523,1.56464 8.380962,2.01144 0.446943,1.8e-4 0.782181,0.11193 1.005716,0.33523 0.223449,1.9e-4 0.558688,1.9e-4 1.005715,0 1.117417,0.22368 2.234878,0.44718 3.352385,0.67048 1.340906,0.22368 2.458367,0.44717 3.352385,0.67048 8.49265,2.23511 14.526937,5.58749 18.102879,10.05715 3.799297,4.24653 5.69898,8.93986 5.699054,14.08002 -7.4e-5,0.44715 -7.4e-5,0.89413 0,1.34095 -7.4e-5,0.44715 -7.4e-5,0.89413 0,1.34096 -0.894042,7.82238 -5.028646,14.97413 -12.403824,21.45526 -7.151809,6.48141 -15.197525,9.72205 -24.137172,9.72192 -4.6933714,1.3e-4 -9.3867056,-1.00559 -14.08001637,-3.01715 -4.46986563,-2.0113 -8.82796163,-5.36368 -13.07430163,-10.05715 -3.575884,-4.24621 -6.257789,-8.71605 -8.045724,-13.40954 -1.564447,-4.69318 -2.346669,-9.49826 -2.346669,-14.41526 0,-0.6703 0,-1.22904 0,-1.67619 0,-0.67031 0,-1.34078 0,-2.01143 1.117461,-13.85634 8.939684,-26.48364 23.46669463,-37.88195 C 13.572689,570.29174 34.022217,564.48095 60.39437,564.48072 c 4.469758,2.3e-4 9.051346,0.22372 13.744778,0.67047 4.916728,0.22372 9.945301,0.78245 15.085733,1.6762 3.799252,0.6707 7.710364,1.67641 11.733349,3.01714 4.24622,1.34118 8.60432,3.12912 13.0743,5.36382 11.39796,5.81101 21.90209,14.08022 31.51242,24.80765 9.60999,10.50432 14.41507,22.79639 14.41525,36.87623 -1.8e-4,5.14048 -0.7824,10.50429 -2.34667,16.09145 -1.56462,5.36395 -4.13478,10.95125 -7.71048,16.76192 -5.81097,9.1633 -15.19764,16.65029 -28.16004,22.46098 -12.73919,5.58741 -26.260464,10.50423 -40.563853,14.7505 -5.140424,1.34104 -10.280743,2.68199 -15.420971,4.02286 -4.916916,1.34103 -9.721997,2.68199 -14.415255,4.02286 -12.515634,3.57595 -23.019763,7.37532 -31.512419,11.39811 -8.492744,3.79943 -12.739094,8.71626 -12.7390625,14.75049 l 0,-0.33524"
           style="fill:#ff0000;fill-opacity:1;stroke:#000000;stroke-opacity:1;stroke-dashoffset:0"
           id="path3810"
           inkscape:connector-curvature="0" />
      </g>
    </g>
  </g>
</svg>
