<?xml version="1.0" encoding="UTF-8" standalone="no"?>
<!-- Created with Inkscape (http://www.inkscape.org/) -->

<svg
   xmlns:dc="http://purl.org/dc/elements/1.1/"
   xmlns:cc="http://creativecommons.org/ns#"
   xmlns:rdf="http://www.w3.org/1999/02/22-rdf-syntax-ns#"
   xmlns:svg="http://www.w3.org/2000/svg"
   xmlns="http://www.w3.org/2000/svg"
   xmlns:sodipodi="http://sodipodi.sourceforge.net/DTD/sodipodi-0.dtd"
   xmlns:inkscape="http://www.inkscape.org/namespaces/inkscape"
   width="170"
   height="313"
   id="svg6662"
   version="1.1"
   inkscape:version="0.48.4 r9939"
   sodipodi:docname="3_u.svg">
  <defs
     id="defs6664" />
  <sodipodi:namedview
     id="base"
     pagecolor="#ffffff"
     bordercolor="#666666"
     borderopacity="1.0"
     inkscape:pageopacity="0.0"
     inkscape:pageshadow="2"
     inkscape:zoom="0.7"
     inkscape:cx="-351.81158"
     inkscape:cy="117.94202"
     inkscape:document-units="px"
     inkscape:current-layer="layer1"
     showgrid="false"
     inkscape:window-width="1865"
     inkscape:window-height="1056"
     inkscape:window-x="1079"
     inkscape:window-y="24"
     inkscape:window-maximized="1" />
  <metadata
     id="metadata6667">
    <rdf:RDF>
      <cc:Work
         rdf:about="">
        <dc:format>image/svg+xml</dc:format>
        <dc:type
           rdf:resource="http://purl.org/dc/dcmitype/StillImage" />
        <dc:title />
      </cc:Work>
    </rdf:RDF>
  </metadata>
  <g
     inkscape:label="Ebene 1"
     inkscape:groupmode="layer"
     id="layer1"
     transform="translate(0,-739.36218)">
    <g
       transform="scale(0.83123176,1.2030339)"
       style="font-size:363.44677734px;font-style:normal;font-variant:normal;font-weight:500;font-stretch:normal;text-align:start;line-height:125%;letter-spacing:0px;word-spacing:0px;writing-mode:lr-tb;text-anchor:start;fill:#ff0000;fill-opacity:1;stroke:#000000;stroke-width:5;stroke-miterlimit:4;stroke-opacity:1;font-family:FetteFraktur;-inkscape-font-specification:FetteFraktur Medium"
       id="text6670">
      <path
         d="m 44.28812,733.58402 42.88672,0 c 14.29547,0.24243 23.62393,-4.24008 27.9854,-13.44753 4.36124,-9.44946 6.54192,-22.04894 6.54204,-37.79847 -1.2e-4,-19.14132 -3.75573,-32.83114 -11.26685,-41.06948 -7.26903,-8.23789 -15.386004,-13.08385 -24.350931,-14.53787 -1.211573,-0.24206 -2.544209,-0.36321 -3.997914,-0.36345 -1.211569,-0.24206 -2.544206,-0.36321 -3.997915,-0.36345 -5.572922,2.4e-4 -10.661171,0.84829 -15.264765,2.54413 -4.603716,1.45403 -7.874733,3.15011 -9.813063,5.08825 -1.211539,1.45402 -2.18073,2.78666 -2.907574,3.99792 -0.726941,0.96942 -1.090388,1.93861 -1.09034,2.90757 -4.8e-5,2.18091 1.21144,4.11929 3.634468,5.81515 2.422925,1.69631 5.330496,3.27124 8.722722,4.72481 0.726833,0.48481 1.574875,0.96941 2.544128,1.45379 0.969128,0.24251 1.938318,0.60596 2.907574,1.09034 4.118994,1.6963 7.874607,3.75582 11.26685,6.17859 3.39209,2.18089 5.45162,4.96731 6.178595,8.35928 0.484513,1.69628 0.847959,3.39237 1.090341,5.08825 0.484511,1.69628 0.726809,3.27122 0.726893,4.72481 -8.4e-5,9.2075 -3.876846,16.35528 -11.630297,21.44336 -7.511299,4.84612 -15.749417,7.39025 -24.714381,7.63238 -0.242345,1.6e-4 -0.484643,1.6e-4 -0.726893,0 -4.8e-5,1.6e-4 -0.121196,1.6e-4 -0.363447,0 -8.965059,1.6e-4 -17.203177,-2.42281 -24.714381,-7.26893 -7.511248,-5.08808 -11.266861,-12.84161 -11.26685,-23.2606 -1.1e-5,-0.2421 -1.1e-5,-0.36325 0,-0.36344 -1.1e-5,-0.24211 -1.1e-5,-0.48441 0,-0.7269 -1.1e-5,2e-4 -1.1e-5,2e-4 0,0 -1.1e-5,-0.2421 -1.1e-5,-0.4844 0,-0.72689 -1.1e-5,-20.11051 8.238108,-34.76951 24.714381,-43.97706 16.476201,-9.44937 35.011969,-14.17417 55.607357,-14.17442 1.453694,2.5e-4 2.786331,2.5e-4 3.997915,0 1.45369,2.5e-4 2.907475,0.1214 4.361357,0.36344 20.5952,0.96944 39.61556,6.05769 57.06115,15.26477 17.44527,8.96525 27.13717,20.95898 29.07574,35.98123 0.24211,1.93858 0.36326,3.87696 0.36345,5.81515 0.24211,1.69627 0.36326,3.51351 0.36344,5.4517 -1.8e-4,18.17251 -4.36154,31.25658 -13.08408,39.25225 -8.48059,7.99597 -17.80905,13.20537 -27.9854,15.62821 -2.42312,0.72703 -4.8461,1.33277 -7.26894,1.81724 -2.42311,0.24243 -4.72494,0.48472 -6.90549,0.72689 2.42285,1.21162 6.7842,2.9077 13.08409,5.08825 6.54189,1.93851 13.32622,4.72493 20.35302,8.35928 8.72255,4.60377 16.71837,11.02466 23.98748,19.26268 7.51104,7.99592 11.26665,18.65701 11.26685,31.98332 -2e-4,0.24236 -2e-4,0.60581 0,1.09034 -2e-4,0.24236 -2e-4,0.48466 0,0.72689 -2e-4,0.48466 -2e-4,0.84811 0,1.09034 -2e-4,0.24236 -2e-4,0.60581 0,1.09034 -0.72709,22.04915 -10.05555,38.16194 -27.9854,48.33842 -17.6879,9.93422 -37.0717,15.87051 -58.15148,17.80889 -3.39228,0.4846 -6.9056,0.72689 -10.53996,0.7269 -3.39227,0.24229 -6.784435,0.36344 -10.176508,0.36344 -12.841867,0 -24.71445,-0.96919 -35.617784,-2.90757 -10.661153,-1.69609 -18.535825,-4.11906 -23.624041,-7.26894 -7.995855,-4.60364 -14.295593,-9.4496 -18.899232,-14.53787 -4.60367,-5.33052 -7.9958366,-10.78222 -10.17651,-16.3551 -1.2114932,-2.90754 -2.0595348,-5.81511 -2.5441275,-8.72272 -0.4845977,-2.90753 -0.7268953,-5.8151 -0.7268935,-8.72273 -0.2422995,-6.78428 0.9691886,-12.72057 3.6344677,-17.80889 2.6652683,-5.33047 5.5728393,-8.96494 8.7227223,-10.9034 4.845938,-2.66519 9.570742,-4.60357 14.174425,-5.81515 4.603626,-1.2114 8.843834,-1.81714 12.720637,-1.81723 10.661054,9e-5 19.020321,3.39225 25.077828,10.17651 6.299671,6.78441 9.44954,14.41678 9.449616,22.89714 -7.6e-5,0.24236 -7.6e-5,0.48465 0,0.7269 -7.6e-5,0.24235 -7.6e-5,0.6058 0,1.09034 -0.242373,6.05749 -2.544201,11.99378 -6.905489,17.80889 -4.361426,5.57288 -11.02461,9.57079 -19.989573,11.99374 -2.423025,0.72692 -4.361405,1.81726 -5.815148,3.27102 -1.211531,1.45381 -1.817275,3.14989 -1.817234,5.08826 -4.1e-5,0.48461 -4.1e-5,0.96921 0,1.45378 0.242256,0.48462 0.484554,0.96921 0.726893,1.45379 0.484554,0.96921 1.332596,1.9384 2.544128,2.90758 1.211444,0.9692 2.665229,1.93839 4.361361,2.90757 3.634416,1.69609 7.874624,3.27103 12.720637,4.72481 4.845891,1.21149 9.812992,1.81723 14.901318,1.81723 0.726817,0 1.45371,0 2.180681,0 0.726814,0 1.332558,0 1.817234,0 10.418717,-0.96919 19.868322,-5.33054 28.348852,-13.08408 8.7226,-7.99581 13.56855,-21.92792 14.53787,-41.79638 -1.3e-4,-0.72684 -1.3e-4,-1.45373 0,-2.18068 -1.3e-4,-0.96913 -1.3e-4,-1.93832 0,-2.90758 -1.3e-4,-1.93832 -1.3e-4,-3.99784 0,-6.17859 -1.3e-4,-2.18061 -1.3e-4,-4.36129 0,-6.54204 -0.24242,-12.35711 -2.54425,-23.62395 -6.90549,-33.80055 -4.36147,-10.41869 -14.53797,-16.11269 -30.52953,-17.082 l -42.88672,-0.36345 0,-8.72272 0,0"
         style="fill:#ff0000;stroke:#000000"
         id="path3753" />
    </g>
  </g>
</svg>
