<?xml version="1.0" encoding="UTF-8" standalone="no"?>
<!-- Created with Inkscape (http://www.inkscape.org/) -->

<svg
   xmlns:osb="http://www.openswatchbook.org/uri/2009/osb"
   xmlns:dc="http://purl.org/dc/elements/1.1/"
   xmlns:cc="http://creativecommons.org/ns#"
   xmlns:rdf="http://www.w3.org/1999/02/22-rdf-syntax-ns#"
   xmlns:svg="http://www.w3.org/2000/svg"
   xmlns="http://www.w3.org/2000/svg"
   xmlns:sodipodi="http://sodipodi.sourceforge.net/DTD/sodipodi-0.dtd"
   xmlns:inkscape="http://www.inkscape.org/namespaces/inkscape"
   width="170"
   height="313"
   id="svg7740"
   version="1.1"
   inkscape:version="0.48.4 r9939"
   sodipodi:docname="5_u.svg">
  <defs
     id="defs7742">
    <linearGradient
       id="linearGradient8518"
       osb:paint="solid">
      <stop
         style="stop-color:#000000;stop-opacity:1;"
         offset="0"
         id="stop8520" />
    </linearGradient>
    <linearGradient
       id="linearGradient8512"
       osb:paint="solid">
      <stop
         style="stop-color:#6b0a0a;stop-opacity:1;"
         offset="0"
         id="stop8514" />
    </linearGradient>
    <linearGradient
       id="linearGradient8372"
       osb:paint="solid">
      <stop
         style="stop-color:#9d0a0a;stop-opacity:1;"
         offset="0"
         id="stop8374" />
    </linearGradient>
    <linearGradient
       id="linearGradient8268">
      <stop
         style="stop-color:#c30600;stop-opacity:1;"
         offset="0"
         id="stop8270" />
      <stop
         style="stop-color:#ed096f;stop-opacity:0;"
         offset="1"
         id="stop8272" />
    </linearGradient>
  </defs>
  <sodipodi:namedview
     id="base"
     pagecolor="#ffffff"
     bordercolor="#666666"
     borderopacity="1.0"
     inkscape:pageopacity="0.0"
     inkscape:pageshadow="2"
     inkscape:zoom="0.98994949"
     inkscape:cx="-302.33214"
     inkscape:cy="103.10637"
     inkscape:document-units="px"
     inkscape:current-layer="layer1"
     showgrid="false"
     inkscape:window-width="1865"
     inkscape:window-height="1056"
     inkscape:window-x="1079"
     inkscape:window-y="24"
     inkscape:window-maximized="1" />
  <metadata
     id="metadata7745">
    <rdf:RDF>
      <cc:Work
         rdf:about="">
        <dc:format>image/svg+xml</dc:format>
        <dc:type
           rdf:resource="http://purl.org/dc/dcmitype/StillImage" />
        <dc:title />
      </cc:Work>
    </rdf:RDF>
  </metadata>
  <g
     inkscape:label="Ebene 1"
     inkscape:groupmode="layer"
     id="layer1"
     transform="translate(0,-739.36218)">
    <g
       transform="scale(0.84777842,1.1795535)"
       style="font-size:356.71710205px;font-style:normal;font-variant:normal;font-weight:500;font-stretch:normal;text-align:start;line-height:125%;letter-spacing:0px;word-spacing:0px;writing-mode:lr-tb;text-anchor:start;fill:#ff0000;fill-opacity:1;fill-rule:nonzero;stroke:#000000;stroke-width:5;stroke-miterlimit:4;stroke-opacity:1;font-family:FetteFraktur;-inkscape-font-specification:FetteFraktur Medium"
       id="text7748">
      <path
         d="m 20.892492,643.02456 c 4.280579,0.47586 9.274613,1.07039 14.982118,1.78358 5.707431,0.71367 11.890521,1.54601 18.54929,2.49702 4.993978,0.47586 9.988013,0.95148 14.982118,1.42687 4.993963,0.47586 10.106904,0.95148 15.338835,1.42687 4.042704,0.23804 8.085494,0.47585 12.128382,0.71343 4.280505,0.23805 8.323295,0.35695 12.128385,0.35672 14.03074,2.3e-4 26.04021,-1.54554 36.02842,-4.63732 10.22574,-3.09131 15.69539,-8.91768 16.40899,-17.47914 l 5.35076,-0.35672 c -3.09172,29.72665 -13.3176,50.05951 -30.67767,60.99863 -17.36036,10.9395 -38.049928,16.52807 -62.06878,16.7657 -7.13441,1.8e-4 -14.506556,-0.35654 -22.11646,-1.07015 -7.3722,-0.95107 -14.863251,-2.02122 -22.473177,-3.21046 l 0,56.00459 c 7.372115,-12.36605 17.7169,-21.40288 31.034387,-27.1105 13.555175,-5.94513 27.94275,-9.03667 43.16277,-9.27464 0.95114,1.6e-4 1.78348,1.6e-4 2.49702,0 0.95114,1.6e-4 1.78348,1.6e-4 2.49702,0 21.87852,0.9514 41.97356,7.72902 60.28519,20.33287 18.31129,12.60413 27.94264,30.20216 28.89408,52.79413 -1.9e-4,32.34241 -12.00966,56.36134 -36.02842,72.05686 -24.01909,15.45774 -52.31862,23.1866 -84.898673,23.18661 C 56.68305,890.2295 40.27408,885.23547 27.670117,875.24739 15.066096,865.25933 7.3372334,854.20111 4.4835055,842.0727 4.0078771,840.40806 3.6511603,838.74338 3.4133542,837.07866 3.175538,835.17622 3.0566324,833.39263 3.0566371,831.7279 c -0.2378158,-6.18303 1.0701456,-12.00941 3.9238881,-17.47914 3.0915368,-5.46958 7.7288538,-9.98799 13.9119668,-13.55525 1.902467,-1.18897 3.686051,-2.14021 5.350757,-2.85373 1.902461,-0.71335 3.80495,-1.30788 5.707473,-1.78359 1.902456,-0.47553 3.804945,-0.83225 5.707474,-1.07015 1.90245,-0.23772 3.686034,-0.35663 5.350756,-0.35672 9.750214,9e-5 18.073604,2.85383 24.970198,8.56121 6.896454,5.46974 10.344716,12.24736 10.344796,20.33288 -8e-5,2.85379 -0.594608,5.82643 -1.783586,8.91793 -0.951323,3.09159 -2.616001,6.18314 -4.994039,9.27464 -1.902563,2.61597 -4.280674,5.23189 -7.134342,7.84778 -2.8538,2.37814 -6.183157,4.75626 -9.988079,7.13434 -5.6e-5,3e-5 -0.832395,0.35674 -2.49702,1.07015 -1.42692,0.47565 -2.972693,1.30799 -4.637322,2.49702 -2.615972,1.6647 -4.756272,3.6861 -6.420908,6.06419 -1.664721,2.37813 -0.832382,4.87515 2.49702,7.49106 3.329311,2.37812 7.491006,4.39952 12.485098,6.06419 4.993977,1.66468 10.463634,2.49702 16.408987,2.49702 1.426793,0 2.85366,0 4.280605,0 1.6646,-0.23781 3.210373,-0.47562 4.637322,-0.71343 11.177042,-1.90249 21.284018,-7.84777 30.320958,-17.83586 9.27452,-10.22586 13.91184,-26.99154 13.91196,-50.29711 -1.2e-4,-2.37804 -0.11903,-4.87506 -0.35671,-7.49106 -1.3e-4,-2.61584 -0.11904,-5.35067 -0.35672,-8.20449 -2.14043,-23.54322 -6.89665,-40.42781 -14.26869,-50.65383 -7.37225,-10.22574 -15.933455,-15.33868 -25.683627,-15.33884 -2.616009,1.6e-4 -5.350837,0.35687 -8.204493,1.07016 -2.616001,0.47577 -5.350829,1.30811 -8.204493,2.49702 -6.896594,3.3295 -13.793118,8.44244 -20.689592,15.33883 -6.658762,6.89666 -12.722947,15.10114 -18.192572,24.61348 l -8.561211,-0.35672 c 0.713411,-9.27452 1.189034,-19.14369 1.426869,-29.60752 0.475598,-10.46355 0.713409,-21.16505 0.713434,-32.10454 -2.5e-5,-6.89635 -0.11893,-13.79287 -0.356717,-20.68959 -2.5e-5,-7.13414 -0.11893,-14.14957 -0.356717,-21.04631 -0.237835,-4.75601 -0.475647,-9.51223 -0.713435,-14.26868 -0.237834,-4.756 -0.475645,-9.39331 -0.713434,-13.91197 l 0,-0.35671"
         style="fill:#ff0000;stroke:#000000"
         id="path3762" />
    </g>
  </g>
</svg>
