<?xml version="1.0" encoding="UTF-8" standalone="no"?>
<!-- Created with Inkscape (http://www.inkscape.org/) -->

<svg
   xmlns:dc="http://purl.org/dc/elements/1.1/"
   xmlns:cc="http://creativecommons.org/ns#"
   xmlns:rdf="http://www.w3.org/1999/02/22-rdf-syntax-ns#"
   xmlns:svg="http://www.w3.org/2000/svg"
   xmlns="http://www.w3.org/2000/svg"
   xmlns:sodipodi="http://sodipodi.sourceforge.net/DTD/sodipodi-0.dtd"
   xmlns:inkscape="http://www.inkscape.org/namespaces/inkscape"
   width="170"
   height="313"
   id="svg4515"
   version="1.1"
   inkscape:version="0.48.4 r9939"
   sodipodi:docname="6_u.svg">
  <defs
     id="defs4517" />
  <sodipodi:namedview
     id="base"
     pagecolor="#ffffff"
     bordercolor="#666666"
     borderopacity="1.0"
     inkscape:pageopacity="0.0"
     inkscape:pageshadow="2"
     inkscape:zoom="1.4"
     inkscape:cx="-6.5382443"
     inkscape:cy="61.312359"
     inkscape:document-units="px"
     inkscape:current-layer="layer1"
     showgrid="false"
     inkscape:window-width="1865"
     inkscape:window-height="1056"
     inkscape:window-x="1079"
     inkscape:window-y="24"
     inkscape:window-maximized="1" />
  <metadata
     id="metadata4520">
    <rdf:RDF>
      <cc:Work
         rdf:about="">
        <dc:format>image/svg+xml</dc:format>
        <dc:type
           rdf:resource="http://purl.org/dc/dcmitype/StillImage" />
        <dc:title />
      </cc:Work>
    </rdf:RDF>
  </metadata>
  <g
     inkscape:label="Ebene 1"
     inkscape:groupmode="layer"
     id="layer1"
     transform="translate(0,-739.36218)">
    <g
       transform="scale(0.8238019,1.2138841)"
       style="font-size:363.1595459px;font-style:normal;font-variant:normal;font-weight:500;font-stretch:normal;text-align:start;line-height:125%;letter-spacing:0px;word-spacing:0px;writing-mode:lr-tb;text-anchor:start;fill:#ff0000;fill-opacity:1;stroke:#000000;stroke-width:4.85731125;stroke-miterlimit:4;stroke-opacity:1;font-family:FetteFraktur;-inkscape-font-specification:FetteFraktur Medium"
       id="text4523">
      <path
         d="m 83.206366,736.01562 c 4.115713,-8.9578 10.289419,-15.61572 18.521134,-19.97377 8.2315,-4.59988 17.18943,-6.89988 26.87381,-6.90004 1.93671,1.6e-4 3.87356,0.12121 5.81055,0.36316 2.17881,1.6e-4 4.23672,0.24226 6.17371,0.72632 15.73675,2.66332 30.14207,10.28966 43.21599,22.87905 13.07354,12.34754 19.6104,28.68971 19.61062,49.02654 -2.2e-4,3.14746 -0.24232,6.41589 -0.72632,9.80531 -0.24232,3.38956 -0.84759,6.77904 -1.8158,10.16847 -3.3897,14.52642 -12.10552,28.08437 -26.14749,40.67387 -13.80023,12.34743 -35.71083,19.61061 -65.73188,21.78957 -0.24222,0 -0.60538,0 -1.08947,0 -0.24223,0 -0.48433,0 -0.72632,0 -0.48433,0 -0.84749,0 -1.08948,0 -0.24222,0 -0.60538,0 -1.08948,0 C 74.732561,864.8162 50.643001,852.22668 32.727189,826.80551 14.811295,801.14229 5.0059975,772.93693 3.3112662,742.18933 c -0.2421177,-1.45251 -0.3631708,-2.90515 -0.3631595,-4.35791 -1.13e-5,-1.45251 -1.13e-5,-2.90515 0,-4.35792 0.7263071,-34.86315 10.6526583,-62.10009 29.7790823,-81.71089 19.368449,-19.61039 40.552735,-32.07886 63.552921,-37.40544 4.35781,-1.21028 8.71572,-2.05765 13.07374,-2.54211 4.3578,-0.48397 8.59465,-0.72607 12.71059,-0.72632 16.46308,2.5e-4 30.98945,3.75289 43.57914,11.25794 12.83145,7.50553 20.57885,18.76347 23.24221,33.77384 -1.9e-4,0.24231 -1.9e-4,0.60547 0,1.08948 -1.9e-4,0.24231 0.12086,0.60547 0.36316,1.08948 -1.9e-4,0.24231 -1.9e-4,0.60547 0,1.08948 -1.9e-4,0.2423 -1.9e-4,0.60546 0,1.08947 -1.9e-4,9.44234 -3.26863,16.34237 -9.8053,20.7001 -6.29495,4.11598 -13.55813,6.17389 -21.78958,6.17371 -0.72648,1.8e-4 -1.4528,1.8e-4 -2.17895,0 -0.48438,1.8e-4 -0.96859,1.8e-4 -1.45264,0 -8.47388,-0.72614 -16.34233,-3.38931 -23.60537,-7.98951 -7.02122,-4.84194 -10.53176,-11.3788 -10.53163,-19.61061 -1.3e-4,-0.24191 -1.3e-4,-0.48401 0,-0.72632 -1.3e-4,-0.48401 0.12093,-0.84717 0.36316,-1.08948 -1.3e-4,-0.2419 -1.3e-4,-0.48401 0,-0.72632 -1.3e-4,-0.48401 -1.3e-4,-0.84717 0,-1.08948 0.48408,-2.66296 1.81567,-4.96297 3.99476,-6.90003 2.42092,-2.17874 4.84198,-4.11559 7.26319,-5.81055 0.72617,-0.484 1.33144,-0.84716 1.81579,-1.08948 0.72618,-0.484 1.33145,-0.96821 1.8158,-1.45264 2.17881,-1.45242 3.99461,-2.90505 5.44739,-4.35792 1.6946,-1.69451 2.54197,-3.51031 2.54212,-5.44739 -1.5e-4,-0.96819 -0.24226,-1.93662 -0.72632,-2.90527 -0.24225,-1.2103 -0.96857,-2.42083 -2.17895,-3.6316 -0.96858,-1.4524 -3.02648,-2.66293 -6.17372,-3.6316 -2.90541,-1.21029 -6.41595,-1.81555 -10.53162,-1.81579 -1.69488,2.4e-4 -3.38962,0.12129 -5.08424,0.36316 -1.69487,0.24234 -3.38961,0.48445 -5.08423,0.72632 -5.81067,1.45287 -11.25806,4.35815 -16.342181,8.71582 -5.084334,4.11604 -8.715926,10.28975 -10.894786,18.52114 -0.968519,7.02129 -1.936944,14.52658 -2.905277,22.51589 -0.72641,7.74759 -1.089569,17.55289 -1.089478,29.41593 -9.1e-5,5.32649 0.120962,11.01599 0.363159,17.06849 0.242016,6.0528 0.484122,12.71072 0.726319,19.97378 l 0,-0.36316 m 42.852824,2.54212 c -1.3e-4,-4.842 -1.57382,-9.07886 -4.72107,-12.71059 -3.14751,-3.87356 -6.90016,-5.81041 -11.25795,-5.81055 -0.96854,1.4e-4 -1.93696,0.1212 -2.90527,0.36316 -0.72644,1.4e-4 -1.57381,0.24225 -2.54212,0.72632 -3.3896,1.21067 -6.779085,4.237 -10.168468,9.07899 -3.389588,4.60015 -6.173809,11.37912 -8.352669,20.33693 -0.726413,4.35802 -1.331678,9.92646 -1.815798,16.70534 -0.242199,6.77907 -0.363252,13.80014 -0.36316,21.06325 -9.2e-5,0.9685 -9.2e-5,1.81587 0,2.54212 -9.2e-5,0.72639 -9.2e-5,1.45271 0,2.17896 -9.2e-5,8.47378 0.120961,16.46328 0.36316,23.96853 0.48412,7.26323 1.089385,12.71062 1.815798,16.34218 0.726224,6.53689 3.026232,11.86323 6.900031,15.97902 4.115703,4.11582 8.594666,6.53688 13.436906,7.26319 0.24199,0 0.60515,0 1.08948,0 0.48409,0 0.84725,0 1.08947,0 4.11569,0 7.86834,-1.57369 11.25795,-4.72107 3.38936,-3.38948 5.44726,-8.59476 6.17371,-15.61586 0.72619,-5.56842 1.2104,-12.5895 1.45264,-21.06326 0.48408,-8.47367 0.72618,-17.18949 0.72632,-26.14749 -1.4e-4,-9.68417 -0.24224,-19.00525 -0.72632,-27.96328 -0.24224,-8.95783 -0.72645,-16.34206 -1.45264,-22.15273 l 0,-0.36316"
         style="fill:#ff0000"
         id="path3753" />
    </g>
  </g>
</svg>
