<?xml version="1.0" encoding="UTF-8" standalone="no"?>
<!-- Created with Inkscape (http://www.inkscape.org/) -->

<svg
   xmlns:dc="http://purl.org/dc/elements/1.1/"
   xmlns:cc="http://creativecommons.org/ns#"
   xmlns:rdf="http://www.w3.org/1999/02/22-rdf-syntax-ns#"
   xmlns:svg="http://www.w3.org/2000/svg"
   xmlns="http://www.w3.org/2000/svg"
   xmlns:sodipodi="http://sodipodi.sourceforge.net/DTD/sodipodi-0.dtd"
   xmlns:inkscape="http://www.inkscape.org/namespaces/inkscape"
   width="175"
   height="316"
   id="svg2984"
   version="1.1"
   inkscape:version="0.48.4 r9939"
   sodipodi:docname="7_u.svg">
  <defs
     id="defs2986" />
  <sodipodi:namedview
     id="base"
     pagecolor="#ffffff"
     bordercolor="#666666"
     borderopacity="1.0"
     inkscape:pageopacity="0.0"
     inkscape:pageshadow="2"
     inkscape:zoom="1.979899"
     inkscape:cx="24.361899"
     inkscape:cy="318.70692"
     inkscape:document-units="px"
     inkscape:current-layer="layer1"
     showgrid="false"
     inkscape:window-width="1865"
     inkscape:window-height="1056"
     inkscape:window-x="1079"
     inkscape:window-y="24"
     inkscape:window-maximized="1" />
  <metadata
     id="metadata2989">
    <rdf:RDF>
      <cc:Work
         rdf:about="">
        <dc:format>image/svg+xml</dc:format>
        <dc:type
           rdf:resource="http://purl.org/dc/dcmitype/StillImage" />
        <dc:title />
      </cc:Work>
    </rdf:RDF>
  </metadata>
  <g
     inkscape:label="Ebene 1"
     inkscape:groupmode="layer"
     id="layer1"
     transform="translate(0,-736.36218)">
    <g
       transform="scale(0.86045138,1.1621807)"
       style="font-size:375.51638794px;font-style:normal;font-variant:normal;font-weight:500;font-stretch:normal;text-align:start;line-height:125%;letter-spacing:0px;word-spacing:0px;writing-mode:lr-tb;text-anchor:start;fill:#ff0000;fill-opacity:1;stroke:#000000;stroke-width:5;stroke-miterlimit:4;stroke-opacity:1;font-family:FetteFraktur;-inkscape-font-specification:FetteFraktur Medium"
       id="text2992">
      <path
         d="m 185.22527,698.13482 c -6.25878,7.26017 -13.39359,12.5174 -21.40443,15.77169 -7.76083,3.00431 -15.77184,4.75671 -24.03305,5.25723 -1.25186,0.25052 -2.50358,0.37569 -3.75517,0.37551 -1.25185,1.8e-4 -2.50357,1.8e-4 -3.75516,0 -6.50907,1.8e-4 -12.76767,-0.50051 -18.77582,-1.50206 -6.00837,-1.0012 -11.51594,-2.00258 -16.52272,-3.00413 -1.251816,-0.25017 -2.378364,-0.50051 -3.379648,-0.75104 -1.001468,-0.25016 -2.002844,-0.5005 -3.004131,-0.75103 -1.502153,-0.25016 -3.129389,-0.62568 -4.881713,-1.12655 -1.752492,-0.5005 -3.5049,-0.87602 -5.25723,-1.12655 -3.25455,-0.75085 -6.634194,-1.50188 -10.138942,-2.2531 -3.25454,-0.75084 -6.759357,-1.25153 -10.514459,-1.50206 -0.75109,-0.25016 -1.502122,-0.37533 -2.253098,-0.37552 -0.751088,1.9e-4 -1.50212,1.9e-4 -2.253099,0 -10.264157,1.9e-4 -19.526885,3.75535 -27.788212,11.26549 -8.261378,7.26016 -12.892742,22.40597 -13.894107,45.43749 l -8.6368765,-0.37552 c 0.751029,-6.00812 1.251717,-13.51844 1.5020656,-22.53098 0.5006835,-9.26258 0.7510275,-18.77565 0.7510327,-28.53925 -5.2e-6,-1.25154 -5.2e-6,-2.50326 0,-3.75516 -5.2e-6,-1.25154 -5.2e-6,-2.50326 0,-3.75517 -5.2e-6,-11.51563 -0.2503492,-22.15525 -0.7510327,-31.91889 -0.2503486,-9.76319 -0.7510366,-17.02317 -1.5020656,-21.77995 -3e-6,-0.2501 -3e-6,-0.50044 0,-0.75103 -3e-6,-0.2501 -3e-6,-0.50045 0,-0.75104 -0.250347,-0.25009 -0.375519,-0.37527 -0.3755164,-0.37551 -2.6e-6,-0.2501 -2.6e-6,-0.50044 0,-0.75104 -2.6e-6,-3.50456 0.8762014,-6.008 2.6286147,-7.51032 1.7524028,-1.75216 3.7551552,-2.62836 6.0082622,-2.62862 0.250333,2.6e-4 0.375505,2.6e-4 0.375516,0 0.250333,2.6e-4 0.500677,2.6e-4 0.751033,0 2.753772,2.6e-4 5.257212,1.37715 7.510328,4.13068 2.50342,2.5037 3.75514,6.38403 3.755164,11.64101 -2.4e-5,0.25059 -2.4e-5,0.6261 0,1.12655 -2.4e-5,0.25058 -2.4e-5,0.50093 0,0.75103 -2.4e-5,7.26022 -0.751056,14.89571 -2.253098,22.9065 -1.502086,7.76088 -3.755182,17.27396 -6.759295,28.53925 8.762025,-23.53215 18.650613,-40.43037 29.665794,-50.69471 11.015092,-10.51421 22.280573,-16.27213 33.796475,-17.27376 0.750954,2.6e-4 1.376814,2.6e-4 1.877582,0 0.750952,2.6e-4 1.501984,2.6e-4 2.253098,0 13.017807,-0.25009 25.535008,4.25611 37.551638,13.51859 12.26674,9.26297 22.65601,20.52845 31.16786,33.79648 2.25295,3.50502 4.75639,6.00846 7.51033,7.51032 3.00397,1.50227 6.0081,2.2533 9.01239,2.2531 3.755,2e-4 7.00947,-1.12635 9.76343,-3.37965 3.00395,-2.25289 4.50601,-5.00667 4.5062,-8.26136 -1.9e-4,-1.75219 -0.50087,-3.5046 -1.50207,-5.25723 -0.75121,-1.75219 -2.00293,-3.50459 -3.75516,-5.25722 -1.00156,-0.75081 -2.1281,-1.62702 -3.37965,-2.62862 -1.25189,-1.00115 -2.75396,-1.87735 -4.5062,-2.62861 -2.25326,-1.50184 -4.25602,-2.87873 -6.00826,-4.13068 -1.75257,-1.50184 -3.12946,-3.0039 -4.13068,-4.5062 -1.00154,-1.50183 -1.75257,-2.87872 -2.2531,-4.13068 -0.50084,-1.50183 -0.75119,-3.00389 -0.75103,-4.5062 -1.6e-4,-4.2556 1.75225,-7.88559 5.25723,-10.88997 3.50465,-3.00388 7.51016,-4.50594 12.01652,-4.5062 0.25017,2.6e-4 0.50052,2.6e-4 0.75103,0 0.50052,2.6e-4 0.87604,2.6e-4 1.12655,0 3.50465,0.50095 6.88429,2.12818 10.13895,4.88171 3.25428,2.75404 5.75772,7.00989 7.51032,12.76756 0.5005,1.75265 0.87602,3.50506 1.12655,5.25723 0.25015,1.75264 0.5005,3.37988 0.75104,4.88171 -2e-4,1.75264 -2e-4,3.50505 0,5.25723 0.25015,1.75264 0.37532,3.50505 0.37551,5.25723 -1.9e-4,9.76364 -1.50226,19.15154 -4.50619,28.16373 -2.75398,9.01258 -7.00983,17.3991 -12.76756,25.1596 -1.2519,1.75258 -2.50362,3.63016 -3.75517,5.63274 -1.00154,1.75258 -2.12809,3.50498 -3.37964,5.25723 -1.00155,1.25188 -2.00293,2.62877 -3.00413,4.13068 -0.7512,1.50222 -1.62741,2.87911 -2.62862,4.13068 -8.26152,12.26701 -15.64666,25.53524 -22.15547,39.80474 -6.25874,14.01938 -9.38804,32.79518 -9.38791,56.32746 -1.3e-4,0.50074 -1.3e-4,1.1266 0,1.87758 -1.3e-4,0.50074 -1.3e-4,1.00143 0,1.50207 -1.3e-4,18.5255 -5.00701,32.29442 -15.02065,41.3068 -9.76354,9.01239 -20.528327,13.51858 -32.29441,13.51859 -11.015222,-1e-5 -21.154154,-4.00551 -30.416828,-12.01652 -9.262783,-8.26135 -13.894147,-20.52821 -13.894106,-36.80061 -4.1e-5,-0.50064 -4.1e-5,-1.00133 0,-1.50207 -4.1e-5,-0.75098 -4.1e-5,-1.37684 0,-1.87758 -4.1e-5,-4.50614 0.250303,-8.88716 0.751033,-13.14307 0.75099,-4.25579 1.877538,-8.51164 3.379647,-12.76756 3.004083,-8.51162 8.511651,-17.14849 16.522721,-25.91063 8.010947,-9.01228 19.902287,-18.40019 35.674057,-28.16373 2.252996,-1.50194 4.631266,-2.87883 7.134816,-4.13068 2.50333,-1.50193 5.13194,-3.004 7.88584,-4.5062 3.25436,-1.50192 6.50883,-3.00399 9.76343,-4.50619 3.50469,-1.75227 7.00951,-3.50468 10.51445,-5.25723 11.26535,-5.75777 21.7798,-12.64223 31.54338,-20.6534 9.76325,-8.01085 16.02185,-18.65047 18.77582,-31.9189 l 0,-0.37551"
         style="fill:#ff0000;stroke:#000000"
         id="path2985" />
    </g>
  </g>
</svg>
