<?xml version="1.0" encoding="UTF-8" standalone="no"?>
<!-- Created with Inkscape (http://www.inkscape.org/) -->

<svg
   xmlns:dc="http://purl.org/dc/elements/1.1/"
   xmlns:cc="http://creativecommons.org/ns#"
   xmlns:rdf="http://www.w3.org/1999/02/22-rdf-syntax-ns#"
   xmlns:svg="http://www.w3.org/2000/svg"
   xmlns="http://www.w3.org/2000/svg"
   xmlns:sodipodi="http://sodipodi.sourceforge.net/DTD/sodipodi-0.dtd"
   xmlns:inkscape="http://www.inkscape.org/namespaces/inkscape"
   width="170"
   height="320"
   id="svg3783"
   version="1.1"
   inkscape:version="0.48.4 r9939"
   sodipodi:docname="8_u.svg">
  <defs
     id="defs3785" />
  <sodipodi:namedview
     id="base"
     pagecolor="#ffffff"
     bordercolor="#666666"
     borderopacity="1.0"
     inkscape:pageopacity="0.0"
     inkscape:pageshadow="2"
     inkscape:zoom="0.98994949"
     inkscape:cx="15.021826"
     inkscape:cy="112.88863"
     inkscape:document-units="px"
     inkscape:current-layer="layer1"
     showgrid="false"
     inkscape:window-width="1865"
     inkscape:window-height="1056"
     inkscape:window-x="1079"
     inkscape:window-y="24"
     inkscape:window-maximized="1" />
  <metadata
     id="metadata3788">
    <rdf:RDF>
      <cc:Work
         rdf:about="">
        <dc:format>image/svg+xml</dc:format>
        <dc:type
           rdf:resource="http://purl.org/dc/dcmitype/StillImage" />
        <dc:title />
      </cc:Work>
    </rdf:RDF>
  </metadata>
  <g
     inkscape:label="Ebene 1"
     inkscape:groupmode="layer"
     id="layer1"
     transform="translate(0,-732.36218)">
    <g
       transform="matrix(0.78254968,0,0,1.2558229,2.4783362,-2.6240275)"
       style="font-size:354.58529663px;font-style:normal;font-variant:normal;font-weight:500;font-stretch:normal;text-align:start;line-height:125%;letter-spacing:0px;word-spacing:0px;writing-mode:lr-tb;text-anchor:start;fill:#ff0000;fill-opacity:1;stroke:#000000;stroke-width:5;stroke-miterlimit:4;stroke-opacity:1;font-family:FetteFraktur;-inkscape-font-specification:FetteFraktur Medium"
       id="text3791">
      <path
         d="m 153.89002,685.27586 c 20.56576,7.09185 35.22194,16.31106 43.96858,27.65765 8.98261,11.11045 14.06499,22.69356 15.24716,34.74936 0.23617,1.18204 0.35437,2.36399 0.35459,3.54585 -2.2e-4,0.94565 -2.2e-4,1.89121 0,2.83669 -2.2e-4,6.619 -0.94578,13.11972 -2.83668,19.50219 -1.65495,6.38259 -3.90066,12.41053 -6.73712,18.08385 -8.03748,16.54734 -20.92073,28.48503 -38.6498,35.81311 -17.72942,7.09171 -36.64062,10.63756 -56.73365,10.63756 -0.4729,0 -0.94568,0 -1.41834,0 -0.23651,0 -0.4729,0 -0.70917,0 C 80.845358,837.86573 57.324557,832.78334 35.813115,822.85495 14.537974,812.6902 2.718476,799.45236 0.35458485,783.1414 c -8.51e-6,-0.47273 -0.11820349,-0.94551 -0.35458529250488,-1.41834 -8.15546182e-6,-0.47273 -8.15546182e-6,-1.0637 0,-1.77293 -8.15546182e-6,-0.47272 -8.15546182e-6,-0.9455 0,-1.41834 -8.15546182e-6,-0.47272 -8.15546182e-6,-0.9455 0,-1.41834 C -8.5979667e-6,766.23957 3.9004258,757.02036 11.701314,749.4558 19.502163,741.65501 32.385416,735.27249 50.351112,730.30819 33.803756,723.2166 21.747868,713.761 14.183411,701.94137 6.6189103,690.122 2.8366709,677.23875 2.8366819,663.29157 c 1.6547188,-26.4755 12.4104621,-45.3867 32.2672621,-56.73365 20.093103,-11.34649 41.959175,-17.25624 65.598276,-17.72926 0.47267,2.4e-4 0.94545,2.4e-4 1.41834,0 0.70906,2.4e-4 1.30004,2.4e-4 1.77293,0 13.00134,2.4e-4 25.6482,1.41858 37.94063,4.25502 12.29213,2.83692 22.81148,6.61916 31.55809,11.34673 9.21903,4.96442 16.19253,10.87417 20.92053,17.72927 4.96399,6.61913 7.44608,13.47444 7.44629,20.56594 -2.1e-4,8.74662 -3.90064,17.13847 -11.70131,25.17556 -7.80107,7.80104 -19.85696,13.71078 -36.1677,17.72926 l 0,-0.35458 m -95.028861,50.35111 c -7.328156,4.49151 -13.237905,10.75584 -17.729265,18.79302 -4.255069,7.80095 -6.382578,16.1928 -6.382535,25.17556 -4.3e-5,0.23644 -4.3e-5,0.47283 0,0.70917 -4.3e-5,0.23644 -4.3e-5,0.47283 0,0.70917 0.236347,11.11038 4.609561,21.62973 13.119656,31.55809 8.509982,9.69201 22.45699,15.71996 41.841065,18.08385 3.072971,0.47279 6.027846,0.82737 8.864632,1.06376 2.836568,0.23639 5.555058,0.35459 8.155458,0.35458 18.43831,10e-6 33.09448,-4.01862 43.96858,-12.0559 10.87378,-8.03724 17.25631,-16.78367 19.14761,-26.23931 -1.8e-4,-0.70913 -1.8e-4,-1.4183 0,-2.12751 0.23621,-0.94552 0.3544,-1.77288 0.35458,-2.4821 -1.8e-4,-5.9097 -2.00949,-11.34667 -6.02795,-16.31092 -4.0188,-5.20052 -10.28313,-9.21915 -18.79302,-12.0559 l -86.518811,-25.17556 0,0 m 83.682131,-53.18779 c 7.80072,-4.25487 13.59227,-9.69184 17.37468,-16.31093 3.78207,-6.61875 5.67319,-13.47406 5.67336,-20.56594 -1.7e-4,-0.2362 -1.7e-4,-0.47259 0,-0.70918 -1.7e-4,-0.23619 -1.7e-4,-0.47258 0,-0.70917 -0.23656,-10.63735 -4.72797,-20.68393 -13.47424,-30.13975 -8.5102,-9.45537 -21.03887,-15.36512 -37.58604,-17.72926 -2.36402,-0.47254 -4.60973,-0.70893 -6.73712,-0.70917 -2.12763,2.4e-4 -4.13694,2.4e-4 -6.02795,0 -15.601848,2.4e-4 -28.130516,3.54609 -37.586042,10.63756 -9.219281,6.85554 -14.65625,14.42001 -16.310923,22.69346 -5.6e-5,0.94576 -0.118251,1.77313 -0.354586,2.48209 -5.5e-5,0.70938 -5.5e-5,1.41855 0,2.12751 -5.5e-5,4.72801 1.300089,9.33761 3.900439,13.82883 2.83662,4.25521 7.209834,7.68286 13.119656,10.28298 l 78.008766,24.82097 0,0"
         id="path3753"
         inkscape:connector-curvature="0" />
    </g>
  </g>
</svg>
