<?xml version="1.0" encoding="UTF-8" standalone="no"?>
<!-- Created with Inkscape (http://www.inkscape.org/) -->

<svg
   xmlns:dc="http://purl.org/dc/elements/1.1/"
   xmlns:cc="http://creativecommons.org/ns#"
   xmlns:rdf="http://www.w3.org/1999/02/22-rdf-syntax-ns#"
   xmlns:svg="http://www.w3.org/2000/svg"
   xmlns="http://www.w3.org/2000/svg"
   xmlns:sodipodi="http://sodipodi.sourceforge.net/DTD/sodipodi-0.dtd"
   xmlns:inkscape="http://www.inkscape.org/namespaces/inkscape"
   width="170"
   height="313"
   id="svg4322"
   version="1.1"
   inkscape:version="0.48.4 r9939"
   sodipodi:docname="9_u.svg">
  <defs
     id="defs4324" />
  <sodipodi:namedview
     id="base"
     pagecolor="#ffffff"
     bordercolor="#666666"
     borderopacity="1.0"
     inkscape:pageopacity="0.0"
     inkscape:pageshadow="2"
     inkscape:zoom="1.979899"
     inkscape:cx="-145.76179"
     inkscape:cy="163.38642"
     inkscape:document-units="px"
     inkscape:current-layer="layer1"
     showgrid="false"
     inkscape:window-width="1865"
     inkscape:window-height="1056"
     inkscape:window-x="1079"
     inkscape:window-y="24"
     inkscape:window-maximized="1" />
  <metadata
     id="metadata4327">
    <rdf:RDF>
      <cc:Work
         rdf:about="">
        <dc:format>image/svg+xml</dc:format>
        <dc:type
           rdf:resource="http://purl.org/dc/dcmitype/StillImage" />
        <dc:title />
      </cc:Work>
    </rdf:RDF>
  </metadata>
  <g
     inkscape:label="Ebene 1"
     inkscape:groupmode="layer"
     id="layer1"
     transform="translate(0,-739.36218)">
    <g
       transform="scale(0.82751023,1.2084443)"
       style="font-size:362.22097778px;font-style:normal;font-variant:normal;font-weight:500;font-stretch:normal;text-align:start;line-height:125%;letter-spacing:0px;word-spacing:0px;writing-mode:lr-tb;text-anchor:start;fill:#ff0000;fill-opacity:1;stroke:#000000;stroke-width:4.84200001;stroke-miterlimit:4;stroke-opacity:1;font-family:FetteFraktur;-inkscape-font-specification:FetteFraktur Medium"
       id="text4330">
      <path
         d="m 125.35658,741.69738 c -4.34677,10.62526 -11.22897,18.59412 -20.64659,23.90659 -9.176368,5.07119 -19.077065,7.60673 -29.702125,7.60664 -1.44896,9e-5 -3.018583,9e-5 -4.708873,0 -1.448955,-0.24139 -3.018578,-0.48287 -4.708873,-0.72444 C 50.376785,770.55442 36.250181,763.79296 23.210265,752.20179 10.411777,740.61084 3.6503257,724.91462 2.9258903,705.11307 c -5.8e-6,-5.07093 0.6036952,-10.9872 1.8111049,-17.74883 1.2073944,-6.76128 3.3807181,-13.76421 6.5199778,-21.00882 5.795515,-13.03974 15.696212,-24.99302 29.70212,-35.85988 14.2473,-11.10786 34.773135,-16.66191 61.577567,-16.66216 26.56274,2.5e-4 48.53746,10.14243 65.92422,30.42656 17.6279,20.28458 28.49451,42.74225 32.59989,67.3731 0.48275,3.1394 0.84497,6.39939 1.08666,9.77997 0.24127,3.13939 0.36201,6.27863 0.36222,9.41774 -2.1e-4,7.24455 -0.48317,15.09266 -1.44888,23.54437 -0.72465,8.45192 -2.29427,17.02448 -4.70888,25.71769 -5.07129,19.80148 -14.7305,38.39547 -28.97768,55.78203 -14.24751,17.14514 -35.86001,27.64953 -64.83755,31.51322 -2.656391,0.48296 -5.433415,0.72444 -8.331083,0.72445 -2.897862,0.24147 -5.795627,0.36221 -8.693304,0.36222 -16.903717,0.24147 -32.237723,-3.25999 -46.002064,-10.50441 -13.764426,-7.24441 -21.250318,-18.23177 -22.457701,-32.96211 -2e-5,-0.48292 -0.12076,-0.84514 -0.362221,-1.08666 -1.9e-5,-0.48292 -1.9e-5,-0.96589 0,-1.44889 -1.9e-5,-0.24144 -1.9e-5,-0.60366 0,-1.08666 -1.9e-5,-0.48292 -1.9e-5,-0.84514 0,-1.08666 -1.9e-5,-9.65918 3.622187,-16.90359 10.86663,-21.73326 7.485862,-5.07103 15.696196,-7.60657 24.631026,-7.60664 8.69324,7e-5 16.662094,2.41487 23.906585,7.24442 7.485814,4.58819 11.590981,11.59112 12.315513,21.00881 -9.1e-5,5.5541 -1.328233,10.14223 -3.984431,13.7644 -2.414891,3.62224 -5.071176,6.52 -7.968861,8.6933 -2.656364,2.17335 -5.191908,3.98445 -7.606641,5.43332 -2.173395,1.4489 -3.501537,2.89778 -3.984431,4.34665 -0.241548,0.24149 -0.362288,0.48297 -0.36222,0.72444 -6.8e-5,10e-6 -6.8e-5,0.12075 0,0.36222 -6.8e-5,0.2415 -6.8e-5,0.60372 0,1.08667 -6.8e-5,0.24149 0.120672,0.60371 0.36222,1.08666 0.482894,0.72445 1.207335,1.44889 2.173326,2.17332 1.207332,0.48297 2.656215,1.20741 4.346652,2.17333 0.724367,0.48297 1.448808,0.96593 2.173326,1.44888 0.965845,0.24149 1.811027,0.48297 2.535547,0.72445 1.690284,0.48296 3.259906,0.84518 4.708873,1.08666 1.690279,0.24148 3.259901,0.36222 4.708872,0.36222 11.108011,0.24148 20.525747,-6.03701 28.253237,-18.83549 7.72726,-13.03992 11.59094,-30.78873 11.59107,-53.24648 l 0,-48.89984 0,0 m -5.43331,-91.27968 c -0.72457,-8.93456 -3.26011,-15.69602 -7.60664,-20.28438 -4.10529,-4.58789 -8.57267,-6.88195 -13.402181,-6.8822 -4.82971,-0.24123 -9.297097,2.05283 -13.402176,6.8822 -3.863775,4.58836 -5.795618,11.47056 -5.795535,20.6466 -8.3e-5,1.69058 -8.3e-5,3.50168 0,5.43331 -8.3e-5,1.69057 -8.3e-5,3.38094 0,5.0711 -8.3e-5,15.69643 -8.3e-5,30.54747 0,44.55318 -8.3e-5,14.00602 -8.3e-5,24.26894 0,30.78878 0.724358,7.48602 2.414721,13.16081 5.071093,17.02439 2.897678,3.62231 6.278403,5.43342 10.142188,5.43331 1.207304,1.1e-4 2.414706,-0.12063 3.622209,-0.36222 1.207301,-0.24137 2.414702,-0.72434 3.622212,-1.44888 3.38062,-1.93174 6.76134,-5.31247 10.14219,-10.14219 3.38061,-5.07097 5.91615,-11.4702 7.60664,-19.19771 0.48283,-2.65615 0.84505,-7.0028 1.08666,-13.03996 0.48284,-6.03686 0.72432,-12.79831 0.72444,-20.28437 -1.2e-4,-1.93168 -1.2e-4,-3.86352 0,-5.79554 -1.2e-4,-1.93167 -1.2e-4,-3.86351 0,-5.79553 -0.2416,-5.79535 -0.48308,-11.47014 -0.72444,-17.02439 -0.24161,-5.79533 -0.60383,-10.86642 -1.08666,-15.21328 l 0,-0.36222"
         style="fill:#ff0000;stroke:#000000"
         id="path3753" />
    </g>
  </g>
</svg>
