<?xml version="1.0" encoding="UTF-8" standalone="no"?>
<!-- Generator: Adobe Illustrator 16.2.1, SVG Export Plug-In . SVG Version: 6.00 Build 0)  -->

<svg
   xmlns:dc="http://purl.org/dc/elements/1.1/"
   xmlns:cc="http://creativecommons.org/ns#"
   xmlns:rdf="http://www.w3.org/1999/02/22-rdf-syntax-ns#"
   xmlns:svg="http://www.w3.org/2000/svg"
   xmlns="http://www.w3.org/2000/svg"
   xmlns:xlink="http://www.w3.org/1999/xlink"
   xmlns:sodipodi="http://sodipodi.sourceforge.net/DTD/sodipodi-0.dtd"
   xmlns:inkscape="http://www.inkscape.org/namespaces/inkscape"
   version="1.1"
   id="Layer_1"
   x="0px"
   y="0px"
   width="250"
   height="180"
   viewBox="0 0 250 180"
   xml:space="preserve"
   inkscape:version="0.48.4 r9939"
   sodipodi:docname="smart_meter.svg"><metadata
     id="metadata17"><rdf:RDF><cc:Work
         rdf:about=""><dc:format>image/svg+xml</dc:format><dc:type
           rdf:resource="http://purl.org/dc/dcmitype/StillImage" /><dc:title></dc:title></cc:Work></rdf:RDF></metadata><defs
     id="defs15"><linearGradient
       inkscape:collect="always"
       id="linearGradient4185"><stop
         style="stop-color:#d7ff00;stop-opacity:1;"
         offset="0"
         id="stop4187" /><stop
         style="stop-color:#d7ff00;stop-opacity:0;"
         offset="1"
         id="stop4189" /></linearGradient><linearGradient
       id="linearGradient3936"><stop
         style="stop-color:#89d7f8;stop-opacity:1;"
         offset="0"
         id="stop3938" /><stop
         style="stop-color:#005ca2;stop-opacity:1;"
         offset="1"
         id="stop3940" /></linearGradient><linearGradient
       inkscape:collect="always"
       xlink:href="#linearGradient3936"
       id="linearGradient3950"
       x1="-437.1236"
       y1="221.28815"
       x2="-278.80859"
       y2="221.28815"
       gradientUnits="userSpaceOnUse" /><linearGradient
       inkscape:collect="always"
       xlink:href="#linearGradient3936-3"
       id="linearGradient3950-2"
       x1="-437.1236"
       y1="221.28815"
       x2="-278.80859"
       y2="221.28815"
       gradientUnits="userSpaceOnUse" /><linearGradient
       id="linearGradient3936-3"><stop
         style="stop-color:#89d7f8;stop-opacity:1;"
         offset="0"
         id="stop3938-9" /><stop
         style="stop-color:#005ca2;stop-opacity:1;"
         offset="1"
         id="stop3940-3" /></linearGradient><linearGradient
       inkscape:collect="always"
       xlink:href="#linearGradient3936-3"
       id="linearGradient3966"
       x1="-437.1236"
       y1="221.28815"
       x2="-278.80859"
       y2="221.28815"
       gradientUnits="userSpaceOnUse" /><linearGradient
       id="linearGradient3968"><stop
         style="stop-color:#89d7f8;stop-opacity:1;"
         offset="0"
         id="stop3970" /><stop
         style="stop-color:#005ca2;stop-opacity:1;"
         offset="1"
         id="stop3972" /></linearGradient><linearGradient
       inkscape:collect="always"
       xlink:href="#linearGradient3936-3"
       id="linearGradient3974"
       x1="-437.1236"
       y1="221.28815"
       x2="-278.80859"
       y2="221.28815"
       gradientUnits="userSpaceOnUse" /><linearGradient
       id="linearGradient3976"><stop
         style="stop-color:#89d7f8;stop-opacity:1;"
         offset="0"
         id="stop3978" /><stop
         style="stop-color:#005ca2;stop-opacity:1;"
         offset="1"
         id="stop3980" /></linearGradient><linearGradient
       y2="221.28815"
       x2="-278.80859"
       y1="221.28815"
       x1="-437.1236"
       gradientUnits="userSpaceOnUse"
       id="linearGradient3989"
       xlink:href="#linearGradient3936-3"
       inkscape:collect="always" /><linearGradient
       inkscape:collect="always"
       xlink:href="#linearGradient3936"
       id="linearGradient4057"
       gradientUnits="userSpaceOnUse"
       x1="-437.1236"
       y1="221.28815"
       x2="-278.80859"
       y2="221.28815" /><linearGradient
       inkscape:collect="always"
       xlink:href="#linearGradient3936-3"
       id="linearGradient4063"
       gradientUnits="userSpaceOnUse"
       x1="-437.1236"
       y1="221.28815"
       x2="-278.80859"
       y2="221.28815" /><linearGradient
       inkscape:collect="always"
       xlink:href="#linearGradient3936"
       id="linearGradient4116"
       gradientUnits="userSpaceOnUse"
       x1="-437.1236"
       y1="221.28815"
       x2="-278.80859"
       y2="221.28815" /><linearGradient
       inkscape:collect="always"
       xlink:href="#linearGradient3936"
       id="linearGradient4118"
       gradientUnits="userSpaceOnUse"
       x1="-437.1236"
       y1="221.28815"
       x2="-278.80859"
       y2="221.28815" /><linearGradient
       inkscape:collect="always"
       xlink:href="#linearGradient3936"
       id="linearGradient4120"
       gradientUnits="userSpaceOnUse"
       x1="-437.1236"
       y1="221.28815"
       x2="-278.80859"
       y2="221.28815" /><linearGradient
       inkscape:collect="always"
       xlink:href="#linearGradient3936-3"
       id="linearGradient4122"
       gradientUnits="userSpaceOnUse"
       x1="-437.1236"
       y1="221.28815"
       x2="-278.80859"
       y2="221.28815" /><linearGradient
       inkscape:collect="always"
       xlink:href="#linearGradient3936-3"
       id="linearGradient4124"
       gradientUnits="userSpaceOnUse"
       x1="-437.1236"
       y1="221.28815"
       x2="-278.80859"
       y2="221.28815" /><linearGradient
       inkscape:collect="always"
       xlink:href="#linearGradient3936-3"
       id="linearGradient4126"
       gradientUnits="userSpaceOnUse"
       x1="-437.1236"
       y1="221.28815"
       x2="-278.80859"
       y2="221.28815" /><radialGradient
       inkscape:collect="always"
       xlink:href="#linearGradient4185"
       id="radialGradient4191"
       cx="-30.372881"
       cy="95.389832"
       fx="-30.372881"
       fy="95.389832"
       r="49.355934"
       gradientUnits="userSpaceOnUse" /></defs><sodipodi:namedview
     pagecolor="#ffffff"
     bordercolor="#666666"
     borderopacity="1"
     objecttolerance="10"
     gridtolerance="10"
     guidetolerance="10"
     inkscape:pageopacity="0"
     inkscape:pageshadow="2"
     inkscape:window-width="1920"
     inkscape:window-height="1030"
     id="namedview13"
     showgrid="false"
     inkscape:zoom="3.6875"
     inkscape:cx="140.69463"
     inkscape:cy="72.330621"
     inkscape:window-x="1024"
     inkscape:window-y="0"
     inkscape:window-maximized="1"
     inkscape:current-layer="Layer_1" /><path
     sodipodi:type="arc"
     style="fill:url(#radialGradient4191);fill-opacity:1;stroke:none"
     id="path4183"
     sodipodi:cx="-30.372881"
     sodipodi:cy="95.389832"
     sodipodi:rx="49.355934"
     sodipodi:ry="49.355934"
     d="m 18.983053,95.389832 a 49.355934,49.355934 0 1 1 -98.711868,0 49.355934,49.355934 0 1 1 98.711868,0 z"
     transform="translate(154.57627,9.7627119)" /><path
     inkscape:connector-curvature="0"
     style="fill:#d7ff00;fill-opacity:1"
     id="path5-2"
     d="m 143.43661,120.47 c -0.11634,0.15512 -0.21328,0.29084 -0.32962,0.44595 -1.57051,2.11341 -3.1992,4.30438 -4.78911,6.99947 -3.35431,5.75856 -3.95537,11.22629 -4.03293,14.56122 -11.34523,0.11507 -10.62336,0.0194 -18.55537,0.0194 -0.0969,-3.33493 -0.75618,-8.86082 -4.05233,-14.54183 -0.87251,-1.49296 -1.7644,-2.90837 -2.6563,-4.07171 l 0.0388,0 -3.60637,-4.96362 c -3.06348,-4.18804 -5.25445,-9.13226 -5.25445,-14.27038 0,-6.475954 3.10226,-12.564134 7.67809,-17.139964 4.57583,-4.57583 10.66401,-7.1158 17.13997,-7.1158 6.47596,0 12.56414,2.53997 17.13997,7.1158 4.57583,4.57583 7.67808,10.66401 7.67808,17.139964 0,5.13812 -2.19097,10.06295 -5.25445,14.251 l -1.14395,1.57051 z"
     sodipodi:nodetypes="cccccccccsssssccc" /><path
     inkscape:connector-curvature="0"
     style="fill:#89ba17;fill-opacity:1"
     id="path5"
     d="m 152.9203,104.66565 c 0,-15.084721 -12.8162,-27.319246 -27.92031,-27.319246 -15.10411,0 -27.920313,12.234525 -27.920313,27.338636 0,6.01062 2.559361,11.43957 5.855513,16.09296 h -0.0582 c 2.11341,2.90836 4.14927,5.37078 6.10757,8.7251 4.2656,7.32908 3.60637,14.4061 3.62576,15.82151 v 0.27144 h 24.81805 v -0.27144 c 0,-1.72563 -0.698,-8.49243 3.5676,-15.82151 1.9583,-3.35432 3.99416,-5.81674 6.10757,-8.7251 h -0.0194 c 3.27676,-4.65339 5.83612,-10.08234 5.83612,-16.11235 z m -9.50066,15.80212 c -0.11634,0.15512 -0.21328,0.29084 -0.32962,0.44595 -1.57051,2.11341 -3.1992,4.30438 -4.78911,6.99947 -3.35431,5.75856 -3.95537,11.22629 -4.03293,14.56122 H 131.2045 V 120.778 l 6.20451,-12.40903 h -3.21859 l -6.08818,12.40903 v 21.7158 h -6.20451 V 120.778 l -6.08818,-12.40903 h -3.21859 l 6.20451,12.40903 v 21.7158 h -3.08286 c -0.0969,-3.33493 -0.75618,-8.86082 -4.05233,-14.54183 -0.87251,-1.49296 -1.7644,-2.90837 -2.6563,-4.07171 h 0.0388 l -3.60637,-4.96362 c -3.06348,-4.18804 -5.25445,-9.13226 -5.25445,-14.27038 0,-6.475958 3.10226,-12.564137 7.67809,-17.139965 4.57583,-4.575829 10.66401,-7.115802 17.13997,-7.115802 6.47596,0 12.56414,2.539973 17.13997,7.115802 4.57583,4.575828 7.67808,10.664007 7.67808,17.139965 0,5.13812 -2.19097,10.06295 -5.25445,14.251 l -1.14395,1.57051 z" /><rect
     style="fill:#89ba17;fill-opacity:1"
     id="rect7"
     height="3.1022568"
     width="12.409027"
     y="161.10733"
     x="118.79547" /><rect
     style="fill:#89ba17;fill-opacity:1"
     id="rect9"
     height="3.1022568"
     width="18.613541"
     y="154.90282"
     x="115.69321" /><rect
     style="fill:#89ba17;fill-opacity:1"
     id="rect11"
     height="3.1022568"
     width="18.613541"
     y="148.6983"
     x="115.69321" /><g
     id="g3826"
     transform="matrix(0.73503358,0,0,0.73503358,392.9429,52.351575)"><rect
       transform="matrix(0.79977167,-0.60030432,0.59929053,0.80053161,0,0)"
       rx="13.966747"
       ry="15.019814"
       y="-269.11569"
       x="-468.12448"
       height="30.039629"
       width="215.08792"
       id="rect3788"
       style="fill:#005ca2;fill-opacity:1;stroke:none" /><rect
       transform="matrix(-0.79977167,-0.60030432,-0.59929053,0.80053161,0,0)"
       rx="13.966747"
       ry="15.019814"
       y="168.85109"
       x="115.28413"
       height="30.039629"
       width="215.08792"
       id="rect3788-2"
       style="fill:#005ca2;fill-opacity:1;stroke:none" /><rect
       transform="matrix(0.00547605,-0.99998501,-0.99861857,-0.05254474,0,0)"
       rx="16.108587"
       ry="15.025393"
       y="243.71562"
       x="-57.35535"
       height="30.050787"
       width="76.038742"
       id="rect3788-2-0"
       style="fill:#005ca2;fill-opacity:1;stroke:none" /></g><g
     id="g3003-6-3"
     transform="matrix(-0.21656397,0,0,0.21656397,-19.301344,87.596483)"
     style="fill:url(#linearGradient4120);fill-opacity:1"><path
       inkscape:connector-curvature="0"
       id="path11-7-1"
       d="m -390.8086,221.45564 c 0,36.9 -18.553,69.208 -46.314,87.034 l 23.141,24.511 c 6.26,-4.607 12.18,-9.833 17.684,-15.662 24.175,-25.612 37.489,-59.664 37.489,-95.883 0,-36.219 -13.314,-70.271 -37.49,-95.882 -5.504,-5.83 -11.424,-11.055 -17.684,-15.663 l -23.141,24.512 c 27.762,17.825 46.315,50.133 46.315,87.033 z"
       style="fill:url(#linearGradient4116);fill-opacity:1" /><path
       inkscape:connector-curvature="0"
       id="path15-5-9"
       d="m -310.8086,221.45564 c 0,55.578 -25.251,104.907 -64.262,135.817 l 22.828,23.848 c 6,-5.001 11.74,-10.062 17.198,-15.843 17.622,-18.669 31.462,-40.416 41.134,-64.642 10.02,-25.096 15.102,-51.737 15.102,-79.18 0,-27.444 -5.082,-54.083 -15.102,-79.181 -9.672,-24.225 -23.512,-45.972004 -41.134,-64.641004 -5.457,-5.782 -11.198,-11.178 -17.198,-16.178 l -22.829,24.183 c 39.012,30.910004 64.263,80.239004 64.263,135.817004 z"
       style="fill:url(#linearGradient4118);fill-opacity:1" /></g><g
     id="g3003-6-3-5"
     transform="matrix(0.21656397,0,0,0.21656397,269.30133,87.596483)"
     style="fill:url(#linearGradient4126);fill-opacity:1"><path
       inkscape:connector-curvature="0"
       id="path11-7-1-8"
       d="m -390.8086,221.45564 c 0,36.9 -18.553,69.208 -46.314,87.034 l 23.141,24.511 c 6.26,-4.607 12.18,-9.833 17.684,-15.662 24.175,-25.612 37.489,-59.664 37.489,-95.883 0,-36.219 -13.314,-70.271 -37.49,-95.882 -5.504,-5.83 -11.424,-11.055 -17.684,-15.663 l -23.141,24.512 c 27.762,17.825 46.315,50.133 46.315,87.033 z"
       style="fill:url(#linearGradient4122);fill-opacity:1" /><path
       inkscape:connector-curvature="0"
       id="path15-5-9-4"
       d="m -310.8086,221.45564 c 0,55.578 -25.251,104.907 -64.262,135.817 l 22.828,23.848 c 6,-5.001 11.74,-10.062 17.198,-15.843 17.622,-18.669 31.462,-40.416 41.134,-64.642 10.02,-25.096 15.102,-51.737 15.102,-79.18 0,-27.444 -5.082,-54.083 -15.102,-79.181 -9.672,-24.225 -23.512,-45.972004 -41.134,-64.641004 -5.457,-5.782 -11.198,-11.178 -17.198,-16.178 l -22.829,24.183 c 39.012,30.910004 64.263,80.239004 64.263,135.817004 z"
       style="fill:url(#linearGradient4124);fill-opacity:1" /></g></svg>