<?xml version="1.0" encoding="UTF-8" standalone="no"?>
<!-- Generator: Adobe Illustrator 16.2.1, SVG Export Plug-In . SVG Version: 6.00 Build 0)  -->

<svg
   xmlns:dc="http://purl.org/dc/elements/1.1/"
   xmlns:cc="http://creativecommons.org/ns#"
   xmlns:rdf="http://www.w3.org/1999/02/22-rdf-syntax-ns#"
   xmlns:svg="http://www.w3.org/2000/svg"
   xmlns="http://www.w3.org/2000/svg"
   xmlns:xlink="http://www.w3.org/1999/xlink"
   xmlns:sodipodi="http://sodipodi.sourceforge.net/DTD/sodipodi-0.dtd"
   xmlns:inkscape="http://www.inkscape.org/namespaces/inkscape"
   version="1.1"
   id="Layer_1"
   x="0px"
   y="0px"
   width="250"
   height="200"
   viewBox="0 0 250 200"
   xml:space="preserve"
   inkscape:version="0.48.4 r9939"
   sodipodi:docname="smart_meter_002.svg"><metadata
     id="metadata17"><rdf:RDF><cc:Work
         rdf:about=""><dc:format>image/svg+xml</dc:format><dc:type
           rdf:resource="http://purl.org/dc/dcmitype/StillImage" /><dc:title></dc:title></cc:Work></rdf:RDF></metadata><defs
     id="defs15"><linearGradient
       id="linearGradient4616"><stop
         id="stop4618"
         offset="0"
         style="stop-color:#000000;stop-opacity:1;" /><stop
         style="stop-color:#000000;stop-opacity:1;"
         offset="0.21599999"
         id="stop4628" /><stop
         style="stop-color:#ff0000;stop-opacity:1;"
         offset="0.21599999"
         id="stop4626" /><stop
         style="stop-color:#ff0000;stop-opacity:1;"
         offset="0.38"
         id="stop4620" /><stop
         id="stop4622"
         offset="0.38"
         style="stop-color:#000000;stop-opacity:1;" /><stop
         id="stop4624"
         offset="1"
         style="stop-color:#000000;stop-opacity:1;" /></linearGradient><linearGradient
       id="linearGradient3936"><stop
         style="stop-color:#89d7f8;stop-opacity:1;"
         offset="0"
         id="stop3938" /><stop
         style="stop-color:#005ca2;stop-opacity:1;"
         offset="1"
         id="stop3940" /></linearGradient><linearGradient
       inkscape:collect="always"
       xlink:href="#linearGradient3936"
       id="linearGradient3950"
       x1="-437.1236"
       y1="221.28815"
       x2="-278.80859"
       y2="221.28815"
       gradientUnits="userSpaceOnUse" /><linearGradient
       inkscape:collect="always"
       xlink:href="#linearGradient3936-3"
       id="linearGradient3950-2"
       x1="-437.1236"
       y1="221.28815"
       x2="-278.80859"
       y2="221.28815"
       gradientUnits="userSpaceOnUse" /><linearGradient
       id="linearGradient3936-3"><stop
         style="stop-color:#89d7f8;stop-opacity:1;"
         offset="0"
         id="stop3938-9" /><stop
         style="stop-color:#005ca2;stop-opacity:1;"
         offset="1"
         id="stop3940-3" /></linearGradient><linearGradient
       inkscape:collect="always"
       xlink:href="#linearGradient3936-3"
       id="linearGradient3966"
       x1="-437.1236"
       y1="221.28815"
       x2="-278.80859"
       y2="221.28815"
       gradientUnits="userSpaceOnUse" /><linearGradient
       id="linearGradient3968"><stop
         style="stop-color:#89d7f8;stop-opacity:1;"
         offset="0"
         id="stop3970" /><stop
         style="stop-color:#005ca2;stop-opacity:1;"
         offset="1"
         id="stop3972" /></linearGradient><linearGradient
       inkscape:collect="always"
       xlink:href="#linearGradient3936-3"
       id="linearGradient3974"
       x1="-437.1236"
       y1="221.28815"
       x2="-278.80859"
       y2="221.28815"
       gradientUnits="userSpaceOnUse" /><linearGradient
       id="linearGradient3976"><stop
         style="stop-color:#89d7f8;stop-opacity:1;"
         offset="0"
         id="stop3978" /><stop
         style="stop-color:#005ca2;stop-opacity:1;"
         offset="1"
         id="stop3980" /></linearGradient><linearGradient
       y2="221.28815"
       x2="-278.80859"
       y1="221.28815"
       x1="-437.1236"
       gradientUnits="userSpaceOnUse"
       id="linearGradient3989"
       xlink:href="#linearGradient3936-3"
       inkscape:collect="always" /><linearGradient
       inkscape:collect="always"
       xlink:href="#linearGradient3936"
       id="linearGradient4057"
       gradientUnits="userSpaceOnUse"
       x1="-437.1236"
       y1="221.28815"
       x2="-278.80859"
       y2="221.28815" /><linearGradient
       inkscape:collect="always"
       xlink:href="#linearGradient3936-3"
       id="linearGradient4063"
       gradientUnits="userSpaceOnUse"
       x1="-437.1236"
       y1="221.28815"
       x2="-278.80859"
       y2="221.28815" /><linearGradient
       inkscape:collect="always"
       xlink:href="#linearGradient3936"
       id="linearGradient4120"
       gradientUnits="userSpaceOnUse"
       x1="-437.1236"
       y1="221.28815"
       x2="-278.80859"
       y2="221.28815" /><linearGradient
       inkscape:collect="always"
       xlink:href="#linearGradient3936-3"
       id="linearGradient4126"
       gradientUnits="userSpaceOnUse"
       x1="-437.1236"
       y1="221.28815"
       x2="-278.80859"
       y2="221.28815" /><linearGradient
       id="linearGradient3772"><stop
         style="stop-color:#000000;stop-opacity:1;"
         offset="0"
         id="stop3774" /><stop
         id="stop3780"
         offset="0.82999998"
         style="stop-color:#000000;stop-opacity:1;" /><stop
         style="stop-color:#ff0000;stop-opacity:1;"
         offset="0.82999998"
         id="stop3782" /><stop
         style="stop-color:#ff0000;stop-opacity:1;"
         offset="1"
         id="stop3776" /></linearGradient><linearGradient
       inkscape:collect="always"
       xlink:href="#linearGradient3936"
       id="linearGradient3965"
       gradientUnits="userSpaceOnUse"
       x1="-437.1236"
       y1="221.28815"
       x2="-278.80859"
       y2="221.28815" /><linearGradient
       inkscape:collect="always"
       xlink:href="#linearGradient3936"
       id="linearGradient3967"
       gradientUnits="userSpaceOnUse"
       x1="-437.1236"
       y1="221.28815"
       x2="-278.80859"
       y2="221.28815" /><linearGradient
       inkscape:collect="always"
       xlink:href="#linearGradient3936"
       id="linearGradient3969"
       gradientUnits="userSpaceOnUse"
       x1="-437.1236"
       y1="221.28815"
       x2="-278.80859"
       y2="221.28815" /><linearGradient
       inkscape:collect="always"
       xlink:href="#linearGradient3936-3"
       id="linearGradient3971"
       gradientUnits="userSpaceOnUse"
       x1="-437.1236"
       y1="221.28815"
       x2="-278.80859"
       y2="221.28815" /><linearGradient
       inkscape:collect="always"
       xlink:href="#linearGradient3936-3"
       id="linearGradient3973"
       gradientUnits="userSpaceOnUse"
       x1="-437.1236"
       y1="221.28815"
       x2="-278.80859"
       y2="221.28815" /><linearGradient
       inkscape:collect="always"
       xlink:href="#linearGradient3936-3"
       id="linearGradient3975"
       gradientUnits="userSpaceOnUse"
       x1="-437.1236"
       y1="221.28815"
       x2="-278.80859"
       y2="221.28815" /><linearGradient
       inkscape:collect="always"
       xlink:href="#linearGradient3772"
       id="linearGradient3995"
       gradientUnits="userSpaceOnUse"
       gradientTransform="matrix(0.21616658,0,0,0.16334735,236.51403,895.85568)"
       x1="-353.27625"
       y1="634.16736"
       x2="1066.0507"
       y2="355.21286" /><linearGradient
       inkscape:collect="always"
       xlink:href="#linearGradient4616"
       id="linearGradient4614"
       x1="78.538261"
       y1="186.57695"
       x2="169.21278"
       y2="186.57695"
       gradientUnits="userSpaceOnUse"
       gradientTransform="matrix(1.2114288,0,0,4.7123107,-25.066368,-691.20788)" /></defs><sodipodi:namedview
     pagecolor="#ffffff"
     bordercolor="#666666"
     borderopacity="1"
     objecttolerance="10"
     gridtolerance="10"
     guidetolerance="10"
     inkscape:pageopacity="0"
     inkscape:pageshadow="2"
     inkscape:window-width="1920"
     inkscape:window-height="1030"
     id="namedview13"
     showgrid="false"
     inkscape:zoom="1.3037281"
     inkscape:cx="-112.64989"
     inkscape:cy="274.94828"
     inkscape:window-x="1024"
     inkscape:window-y="0"
     inkscape:window-maximized="1"
     inkscape:current-layer="Layer_1" /><rect
     style="fill:none;stroke:#000000;stroke-width:4.1540575;stroke-miterlimit:4;stroke-opacity:1;stroke-dasharray:none"
     id="rect3999"
     width="122.43762"
     height="113.98431"
     x="63.781189"
     y="84.427521"
     ry="3.8332484" /><g
     id="g3826"
     transform="matrix(0.73503358,0,0,0.73503358,392.9429,48.351577)"><rect
       transform="matrix(0.79977167,-0.60030432,0.59929053,0.80053161,0,0)"
       rx="13.966747"
       ry="15.019814"
       y="-269.11569"
       x="-468.12448"
       height="30.039629"
       width="215.08792"
       id="rect3788"
       style="fill:#005ca2;fill-opacity:1;stroke:none" /><rect
       transform="matrix(-0.79977167,-0.60030432,-0.59929053,0.80053161,0,0)"
       rx="13.966747"
       ry="15.019814"
       y="168.85109"
       x="115.28413"
       height="30.039629"
       width="215.08792"
       id="rect3788-2"
       style="fill:#005ca2;fill-opacity:1;stroke:none" /><rect
       transform="matrix(0.00547605,-0.99998501,-0.99861857,-0.05254474,0,0)"
       rx="16.108587"
       ry="15.025393"
       y="243.71562"
       x="-57.35535"
       height="30.050787"
       width="76.038742"
       id="rect3788-2-0"
       style="fill:#005ca2;fill-opacity:1;stroke:none" /></g><g
     id="g3003-6-3"
     transform="matrix(-0.21656397,0,0,0.21656397,-56.900679,111.59648)"
     style="fill:url(#linearGradient3969);fill-opacity:1"><path
       inkscape:connector-curvature="0"
       id="path11-7-1"
       d="m -390.8086,221.45564 c 0,36.9 -18.553,69.208 -46.314,87.034 l 23.141,24.511 c 6.26,-4.607 12.18,-9.833 17.684,-15.662 24.175,-25.612 37.489,-59.664 37.489,-95.883 0,-36.219 -13.314,-70.271 -37.49,-95.882 -5.504,-5.83 -11.424,-11.055 -17.684,-15.663 l -23.141,24.512 c 27.762,17.825 46.315,50.133 46.315,87.033 z"
       style="fill:url(#linearGradient3965);fill-opacity:1" /><path
       inkscape:connector-curvature="0"
       id="path15-5-9"
       d="m -310.8086,221.45564 c 0,55.578 -25.251,104.907 -64.262,135.817 l 22.828,23.848 c 6,-5.001 11.74,-10.062 17.198,-15.843 17.622,-18.669 31.462,-40.416 41.134,-64.642 10.02,-25.096 15.102,-51.737 15.102,-79.18 0,-27.444 -5.082,-54.083 -15.102,-79.181 -9.672,-24.225 -23.512,-45.972004 -41.134,-64.641004 -5.457,-5.782 -11.198,-11.178 -17.198,-16.178 l -22.829,24.183 c 39.012,30.910004 64.263,80.239004 64.263,135.817004 z"
       style="fill:url(#linearGradient3967);fill-opacity:1" /></g><g
     id="g3003-6-3-5"
     transform="matrix(0.21656397,0,0,0.21656397,306.90068,111.59648)"
     style="fill:url(#linearGradient3975);fill-opacity:1"><path
       inkscape:connector-curvature="0"
       id="path11-7-1-8"
       d="m -390.8086,221.45564 c 0,36.9 -18.553,69.208 -46.314,87.034 l 23.141,24.511 c 6.26,-4.607 12.18,-9.833 17.684,-15.662 24.175,-25.612 37.489,-59.664 37.489,-95.883 0,-36.219 -13.314,-70.271 -37.49,-95.882 -5.504,-5.83 -11.424,-11.055 -17.684,-15.663 l -23.141,24.512 c 27.762,17.825 46.315,50.133 46.315,87.033 z"
       style="fill:url(#linearGradient3971);fill-opacity:1" /><path
       inkscape:connector-curvature="0"
       id="path15-5-9-4"
       d="m -310.8086,221.45564 c 0,55.578 -25.251,104.907 -64.262,135.817 l 22.828,23.848 c 6,-5.001 11.74,-10.062 17.198,-15.843 17.622,-18.669 31.462,-40.416 41.134,-64.642 10.02,-25.096 15.102,-51.737 15.102,-79.18 0,-27.444 -5.082,-54.083 -15.102,-79.181 -9.672,-24.225 -23.512,-45.972004 -41.134,-64.641004 -5.457,-5.782 -11.198,-11.178 -17.198,-16.178 l -22.829,24.183 c 39.012,30.910004 64.263,80.239004 64.263,135.817004 z"
       style="fill:url(#linearGradient3973);fill-opacity:1" /></g><g
     id="g3788"
     transform="matrix(0.33589915,0,0,0.33589915,19.311759,-159.70005)"><rect
       style="fill:none;stroke:url(#linearGradient3995);stroke-width:6.6230979;stroke-miterlimit:4;stroke-dasharray:none"
       id="rect2985"
       width="305.72128"
       height="70.005798"
       x="161.78214"
       y="929.14441"
       ry="11.667668" /><text
       sodipodi:linespacing="125%"
       id="text3784"
       y="981.64618"
       x="180.48004"
       style="font-size:55.90909958px;font-style:normal;font-weight:normal;line-height:125%;letter-spacing:0px;word-spacing:0px;fill:#000000;fill-opacity:1;stroke:none;font-family:Sans"
       xml:space="preserve"><tspan
         y="981.64618"
         x="180.48004"
         id="tspan3786"
         sodipodi:role="line">123456,7</tspan></text>
</g><text
     xml:space="preserve"
     style="font-size:37.66316986px;font-style:normal;font-weight:normal;line-height:125%;letter-spacing:0px;word-spacing:0px;fill:#000000;fill-opacity:1;stroke:none;font-family:Sans"
     x="83.419708"
     y="132.06645"
     id="text3943"
     sodipodi:linespacing="125%"><tspan
       sodipodi:role="line"
       id="tspan3945"
       x="83.419708"
       y="132.06645">kWh</tspan></text>
<rect
     style="fill:url(#linearGradient4614);fill-opacity:1;stroke:none"
     id="rect4606"
     width="105"
     height="3.6144886"
     x="72.5"
     y="186.19344"
     ry="1.8072443" /></svg>